<svg xmlns="http://www.w3.org/2000/svg" viewBox="0 0 50.65 46.51"><defs><style>.cls-1{fill:#f2f2f2;}.cls-1,.cls-2{fill-rule:evenodd;}.cls-2{fill:#fe5845;}.cls-3{fill:#77e6a6;}.cls-4{fill:none;stroke:#000;stroke-linecap:round;stroke-linejoin:round;}</style></defs><title>Asset 13</title><g id="Layer_2" data-name="Layer 2"><g id="Layer_1-2" data-name="Layer 1"><path class="cls-1" d="M8.78,46A8.26,8.26,0,0,1,.5,37.74v-29H41.88v29h8.27A8.26,8.26,0,0,1,41.88,46Z"/><path class="cls-2" d="M29.46,21.19h8.28V12.91H29.46Zm-12.41,0h8.28V12.91H17.05Zm-12.41,0h8.27V12.91H4.64ZM29.46,33.6h8.28V25.33H29.46Zm-12.41,0h8.28V25.33H17.05Zm-12.41,0h8.27V25.33H4.64Z"/><rect class="cls-3" x="0.5" y="0.5" width="41.38" height="8.28"/><path class="cls-4" d="M8.78,46h0a8.27,8.27,0,0,0,8.27-8.27h33.1A8.26,8.26,0,0,1,41.88,46H8.78A8.26,8.26,0,0,1,.5,37.74V21.19"/><line class="cls-4" x1="0.5" y1="17.3" x2="0.5" y2="16.8"/><polyline class="cls-4" points="0.5 12.91 0.5 8.78 41.88 8.78 41.88 37.74"/><rect class="cls-4" x="4.64" y="12.91" width="8.28" height="8.28"/><rect class="cls-4" x="4.64" y="25.33" width="8.28" height="8.28"/><rect class="cls-4" x="17.05" y="12.91" width="8.28" height="8.28"/><rect class="cls-4" x="17.05" y="25.33" width="8.28" height="8.28"/><rect class="cls-4" x="29.46" y="12.91" width="8.28" height="8.28"/><rect class="cls-4" x="29.46" y="25.33" width="8.28" height="8.28"/><rect class="cls-4" x="0.5" y="0.5" width="41.38" height="8.28"/><line class="cls-4" x1="37.74" y1="4.64" x2="33.6" y2="4.64"/><line class="cls-4" x1="8.78" y1="4.64" x2="4.64" y2="4.64"/></g></g></svg>