<svg xmlns="http://www.w3.org/2000/svg" viewBox="0 0 50.65 34.1"><defs><style>.cls-1{fill:#fe5845;}.cls-1,.cls-2,.cls-3{fill-rule:evenodd;}.cls-2{fill:#f2f2f2;}.cls-3{fill:#fcd462;}.cls-4{fill:none;stroke:#000;stroke-linecap:round;stroke-linejoin:round;}</style></defs><title>Asset 19</title><g id="Layer_2" data-name="Layer 2"><g id="Layer_1-2" data-name="Layer 1"><path class="cls-1" d="M50.15,4.64a4.13,4.13,0,0,0-1.21-2.93A4.17,4.17,0,0,0,46,.5H4.64A4.13,4.13,0,0,0,.5,4.64V29.46A4.13,4.13,0,0,0,4.64,33.6H46a4.17,4.17,0,0,0,2.93-1.21,4.13,4.13,0,0,0,1.21-2.93Z"/><path class="cls-2" d="M12.91,4.64A4.14,4.14,0,1,1,8.78,8.78,4.14,4.14,0,0,1,12.91,4.64ZM4.64,25.33a8.28,8.28,0,1,1,16.55,0Z"/><path class="cls-3" d="M25.33,12.91H46V4.64H25.33Zm0,8.28H46V17.05H25.33Z"/><path class="cls-4" d="M25.12,33.6h.42"/><path class="cls-4" d="M29.46,33.6H46a4.17,4.17,0,0,0,2.93-1.21,4.13,4.13,0,0,0,1.21-2.93V4.64a4.13,4.13,0,0,0-1.21-2.93A4.17,4.17,0,0,0,46,.5H4.64A4.13,4.13,0,0,0,.5,4.64V29.46A4.13,4.13,0,0,0,4.64,33.6H21.19"/><path class="cls-4" d="M4.64,25.33a8.28,8.28,0,1,1,16.55,0Z"/><line class="cls-4" x1="6.71" y1="29.46" x2="19.12" y2="29.46"/><path class="cls-4" d="M12.91,4.64A4.14,4.14,0,1,1,8.78,8.78,4.14,4.14,0,0,1,12.91,4.64Z"/><rect class="cls-4" x="25.33" y="4.64" width="20.69" height="8.28"/><rect class="cls-4" x="25.33" y="17.05" width="20.69" height="4.14"/><line class="cls-4" x1="46.01" y1="25.33" x2="29.46" y2="25.33"/><line class="cls-4" x1="33.6" y1="29.46" x2="46.01" y2="29.46"/></g></g></svg>