<svg xmlns="http://www.w3.org/2000/svg" viewBox="0 0 50.65 25.83"><defs><style>.cls-1{fill:#fcd462;}.cls-1,.cls-2,.cls-3{fill-rule:evenodd;}.cls-2{fill:#2e6690;}.cls-3{fill:#f2f2f2;}.cls-4{fill:none;stroke:#000;stroke-linecap:round;stroke-linejoin:round;}</style></defs><title>Asset 10</title><g id="Layer_2" data-name="Layer 2"><g id="Layer_1-2" data-name="Layer 1"><path class="cls-1" d="M46,.5a2.07,2.07,0,1,1,0,4.14H41.88v8.27h8.27v6.21a2.07,2.07,0,0,1-2.07,2.07H2.57A2.07,2.07,0,0,1,.5,19.12V2.57A2.07,2.07,0,0,1,2.57.5Z"/><path class="cls-2" d="M41.88,17.05a4.14,4.14,0,1,1-4.14,4.14A4.13,4.13,0,0,1,41.88,17.05Zm-33.1,0a4.14,4.14,0,1,1-4.14,4.14A4.13,4.13,0,0,1,8.78,17.05Z"/><path class="cls-3" d="M4.64,12.91H25.33V4.64H4.64Zm37.24,0H46V4.64H41.88Zm-12.42,0h8.28V4.64H29.46Z"/><path class="cls-4" d="M8.78,17.05a4.14,4.14,0,1,1-4.14,4.14A4.13,4.13,0,0,1,8.78,17.05Z"/><path class="cls-4" d="M41.88,17.05a4.14,4.14,0,1,1-4.14,4.14A4.13,4.13,0,0,1,41.88,17.05Z"/><path class="cls-4" d="M4.64,21.19H2.57A2.07,2.07,0,0,1,.5,19.12V2.57A2.07,2.07,0,0,1,2.57.5H46a2.07,2.07,0,1,1,0,4.14H41.88v8.27h8.27v6.21a2.07,2.07,0,0,1-2.07,2.07H46"/><line class="cls-4" x1="37.74" y1="21.19" x2="29.46" y2="21.19"/><line class="cls-4" x1="25.54" y1="21.19" x2="25.11" y2="21.19"/><line class="cls-4" x1="21.19" y1="21.19" x2="12.91" y2="21.19"/><line class="cls-4" x1="46.01" y1="12.91" x2="46.01" y2="4.64"/><rect class="cls-4" x="4.64" y="4.64" width="20.69" height="8.28"/><rect class="cls-4" x="29.46" y="4.64" width="8.28" height="8.28"/><line class="cls-4" x1="14.98" y1="12.91" x2="14.98" y2="4.64"/></g></g></svg>