<svg xmlns="http://www.w3.org/2000/svg" viewBox="0 0 50.65 50.65"><defs><style>.cls-1{fill:#2e6690;}.cls-2{fill:#f2f2f2;}.cls-3{fill:#fcd462;}.cls-3,.cls-4{fill-rule:evenodd;}.cls-4{fill:#fe5845;}.cls-5{fill:none;stroke:#000;stroke-linecap:round;stroke-linejoin:round;}</style></defs><title>Asset 2</title><g id="Layer_2" data-name="Layer 2"><g id="Layer_1-2" data-name="Layer 1"><rect class="cls-1" x="0.5" y="0.5" width="49.65" height="8.28"/><rect class="cls-2" x="0.5" y="8.78" width="49.65" height="41.38"/><path class="cls-3" d="M29.46,21.19H46V12.91H29.46ZM4.64,33.6H25.33V12.91H4.64Z"/><path class="cls-4" d="M6.71,41.88A2.07,2.07,0,1,1,4.64,44,2.07,2.07,0,0,1,6.71,41.88Zm37.24,0A2.07,2.07,0,1,1,41.88,44,2.06,2.06,0,0,1,44,41.88Zm-18.62,0A2.07,2.07,0,1,1,23.26,44,2.06,2.06,0,0,1,25.33,41.88Z"/><rect class="cls-5" x="0.5" y="0.5" width="49.65" height="8.28"/><line class="cls-5" x1="25.01" y1="50.15" x2="25.64" y2="50.15"/><polyline class="cls-5" points="29.46 50.15 50.15 50.15 50.15 8.78 0.5 8.78 0.5 50.15 21.19 50.15"/><line class="cls-5" x1="4.64" y1="4.64" x2="8.78" y2="4.64"/><line class="cls-5" x1="41.88" y1="4.64" x2="46.01" y2="4.64"/><rect class="cls-5" x="4.64" y="12.91" width="20.69" height="20.69"/><rect class="cls-5" x="29.46" y="12.91" width="16.55" height="8.28"/><line class="cls-5" x1="46.01" y1="25.33" x2="29.46" y2="25.33"/><line class="cls-5" x1="29.46" y1="29.46" x2="46.01" y2="29.46"/><line class="cls-5" x1="46.01" y1="33.6" x2="33.6" y2="33.6"/><path class="cls-5" d="M25.33,41.88A2.07,2.07,0,1,1,23.26,44,2.06,2.06,0,0,1,25.33,41.88Z"/><path class="cls-5" d="M44,41.88A2.07,2.07,0,1,1,41.88,44,2.06,2.06,0,0,1,44,41.88Z"/><path class="cls-5" d="M6.71,41.88A2.07,2.07,0,1,1,4.64,44,2.07,2.07,0,0,1,6.71,41.88Z"/><line class="cls-5" x1="8.78" y1="43.95" x2="23.26" y2="43.95"/><line class="cls-5" x1="27.39" y1="43.95" x2="41.88" y2="43.95"/></g></g></svg>