<svg xmlns="http://www.w3.org/2000/svg" viewBox="0 0 50.65 50.65"><defs><style>.cls-1{fill:#77e6a6;}.cls-1,.cls-2,.cls-3,.cls-4{fill-rule:evenodd;}.cls-2{fill:#f2f2f2;}.cls-3{fill:#2e6690;}.cls-4{fill:#fe5845;}.cls-5{fill:none;stroke:#000;stroke-linecap:round;stroke-linejoin:round;}</style></defs><title>Asset 11</title><g id="Layer_2" data-name="Layer 2"><g id="Layer_1-2" data-name="Layer 1"><path class="cls-1" d="M6.71,37.74a3.11,3.11,0,1,1-3.11,3.1A3.1,3.1,0,0,1,6.71,37.74Zm37.24,0a3.11,3.11,0,1,1-3.11,3.1A3.1,3.1,0,0,1,44,37.74Zm-18.62,0a3.11,3.11,0,1,1-3.11,3.1A3.1,3.1,0,0,1,25.33,37.74ZM.5,50.15a6.21,6.21,0,0,1,12.41,0Zm37.24,0a6.21,6.21,0,0,1,12.41,0Zm-18.62,0a6.21,6.21,0,0,1,12.41,0Z"/><polygon class="cls-2" points="43.95 14.98 6.71 14.98 6.71 10.84 12.91 0.5 37.74 0.5 43.95 10.84 43.95 14.98"/><path class="cls-3" d="M46,23.26H37.74v4.13a2.07,2.07,0,0,0,2.07,2.07H44A2.06,2.06,0,0,0,46,27.39Zm-33.1,0H4.64v4.13a2.06,2.06,0,0,0,2.07,2.07h4.13a2.06,2.06,0,0,0,2.07-2.07Z"/><path class="cls-4" d="M8.78,15a4.15,4.15,0,0,0-4.14-4.14H2.57a2.07,2.07,0,0,0,0,4.14Zm41.37-2.07a2.07,2.07,0,0,0-2.07-2.07H46A4.14,4.14,0,0,0,41.88,15h6.2A2.07,2.07,0,0,0,50.15,12.91Zm-2.07,6.21A4.13,4.13,0,0,0,44,15H6.71a4.13,4.13,0,0,0-4.14,4.14v4.14H48.08Z"/><path class="cls-5" d="M25.33,37.74a3.11,3.11,0,1,1-3.11,3.1A3.1,3.1,0,0,1,25.33,37.74Z"/><path class="cls-5" d="M44,37.74a3.11,3.11,0,1,1-3.11,3.1A3.1,3.1,0,0,1,44,37.74Z"/><path class="cls-5" d="M6.71,37.74a3.11,3.11,0,1,1-3.11,3.1A3.1,3.1,0,0,1,6.71,37.74Z"/><path class="cls-5" d="M19.12,50.15a6.21,6.21,0,0,1,12.41,0Z"/><path class="cls-5" d="M37.74,50.15a6.21,6.21,0,0,1,12.41,0Z"/><path class="cls-5" d="M.5,50.15a6.21,6.21,0,0,1,12.41,0Z"/><line class="cls-5" x1="25.03" y1="23.26" x2="25.62" y2="23.26"/><path class="cls-5" d="M29.46,23.26H48.08V19.12A4.13,4.13,0,0,0,44,15H6.71a4.13,4.13,0,0,0-4.14,4.14v4.14H21.19"/><path class="cls-5" d="M12.91,23.26H4.64v4.13a2.06,2.06,0,0,0,2.07,2.07h4.13a2.06,2.06,0,0,0,2.07-2.07Z"/><path class="cls-5" d="M46,23.26H37.74v4.13a2.07,2.07,0,0,0,2.07,2.07H44A2.06,2.06,0,0,0,46,27.39Z"/><path class="cls-5" d="M8.78,15a4.15,4.15,0,0,0-4.14-4.14H2.57a2.07,2.07,0,0,0,0,4.14Z"/><path class="cls-5" d="M50.15,12.91a2.07,2.07,0,0,0-2.07-2.07H46A4.14,4.14,0,0,0,41.88,15h6.2A2.07,2.07,0,0,0,50.15,12.91Z"/><polyline class="cls-5" points="6.71 10.84 12.91 0.5 37.74 0.5 43.95 10.84"/><line class="cls-5" x1="21.19" y1="19.12" x2="29.46" y2="19.12"/><line class="cls-5" x1="2.57" y1="19.12" x2="4.64" y2="19.12"/><line class="cls-5" x1="46.01" y1="19.12" x2="48.08" y2="19.12"/><polyline class="cls-5" points="9.36 39.22 25.33 29.46 41.3 39.22"/><line class="cls-5" x1="25.33" y1="37.74" x2="25.33" y2="29.46"/></g></g></svg>