<svg xmlns="http://www.w3.org/2000/svg" viewBox="0 0 42.38 50.65"><defs><style>.cls-1{fill:#f2f2f2;}.cls-1,.cls-2{fill-rule:evenodd;}.cls-2{fill:#77e6a6;}.cls-3{fill:#fcd462;}.cls-4{fill:none;stroke:#000;stroke-linecap:round;stroke-linejoin:round;}</style></defs><title>Asset 25</title><g id="Layer_2" data-name="Layer 2"><g id="Layer_1-2" data-name="Layer 1"><polygon class="cls-1" points="0.5 50.15 0.5 0.5 33.6 0.5 41.88 8.78 41.88 50.15 0.5 50.15"/><path class="cls-2" d="M32.22,21.19a5.52,5.52,0,1,1-5.51,5.52A5.52,5.52,0,0,1,32.22,21.19Zm-22.07,0a5.52,5.52,0,1,1-5.51,5.52A5.52,5.52,0,0,1,10.15,21.19Z"/><rect class="cls-3" x="8.78" y="37.74" width="24.83" height="4.14"/><line class="cls-4" x1="21.37" y1="50.15" x2="21.01" y2="50.15"/><polyline class="cls-4" points="17.05 50.15 0.5 50.15 0.5 0.5 33.6 0.5 41.88 8.78 41.88 50.15 25.33 50.15"/><path class="cls-4" d="M10.15,21.19a5.52,5.52,0,1,1-5.51,5.52A5.52,5.52,0,0,1,10.15,21.19Z"/><path class="cls-4" d="M32.22,21.19a5.52,5.52,0,1,1-5.51,5.52A5.52,5.52,0,0,1,32.22,21.19Z"/><polyline class="cls-4" points="11.53 15.67 14.29 15.67 21.19 26.71 30.38 17.49 15.43 17.49"/><polyline class="cls-4" points="32.22 26.71 29.46 12.91 32.22 12.91"/><polygon class="cls-4" points="10.15 26.71 21.19 26.71 15.43 17.49 10.15 26.71"/><rect class="cls-4" x="8.78" y="37.74" width="24.83" height="4.14"/><polyline class="cls-4" points="33.6 0.5 33.6 8.78 41.88 8.78"/></g></g></svg>