<svg xmlns="http://www.w3.org/2000/svg" viewBox="0 0 51.26 27.29"><defs><style>.cls-1{fill:#2e6690;}.cls-1,.cls-2,.cls-3{fill-rule:evenodd;}.cls-2{fill:#fcd462;}.cls-3{fill:#f2f2f2;}.cls-4,.cls-5{fill:none;stroke:#000;stroke-linejoin:round;}.cls-4{stroke-linecap:round;}</style></defs><title>Asset 20</title><g id="Layer_2" data-name="Layer 2"><g id="Layer_1-2" data-name="Layer 1"><path class="cls-1" d="M44.25,14.38A6.21,6.21,0,1,1,38,20.58,6.21,6.21,0,0,1,44.25,14.38ZM7,14.38A6.21,6.21,0,1,1,.8,20.58,6.21,6.21,0,0,1,7,14.38Z"/><path class="cls-2" d="M1.11,4l5.6,5.6a2,2,0,0,0,1.46.61H43.09a2.06,2.06,0,0,0,1.46-.61L50.15,4a2.06,2.06,0,0,0-2.92-2.92l-5,5H9l-5-5A2.06,2.06,0,0,0,1.11,4Z"/><path class="cls-3" d="M13.22,10.24l4.13,8.88H33.9L38,10.24Zm31,8.27a2.07,2.07,0,1,1-2.07,2.07A2.07,2.07,0,0,1,44.25,18.51ZM7,18.51a2.07,2.07,0,1,1-2.07,2.07A2.07,2.07,0,0,1,7,18.51Z"/><path class="cls-4" d="M7,14.38A6.21,6.21,0,1,1,.8,20.58,6.21,6.21,0,0,1,7,14.38Z"/><path class="cls-4" d="M44.25,14.38A6.21,6.21,0,1,1,38,20.58,6.21,6.21,0,0,1,44.25,14.38Z"/><path class="cls-4" d="M7,18.51a2.07,2.07,0,1,1-2.07,2.07A2.07,2.07,0,0,1,7,18.51Z"/><path class="cls-4" d="M44.25,18.51a2.07,2.07,0,1,1-2.07,2.07A2.07,2.07,0,0,1,44.25,18.51Z"/><path class="cls-5" d="M1.11,4l5.6,5.6a2,2,0,0,0,1.46.61H43.09a2.06,2.06,0,0,0,1.46-.61L50.15,4a2.06,2.06,0,0,0-2.92-2.92l-5,5H9l-5-5A2.06,2.06,0,0,0,1.11,4Z"/><polyline class="cls-4" points="13.22 10.24 17.35 19.12 21.49 19.12"/><line class="cls-4" x1="25.32" y1="19.12" x2="25.93" y2="19.12"/><polyline class="cls-4" points="29.77 19.12 33.9 19.12 38.04 10.24"/><line class="cls-4" x1="29.77" y1="14.98" x2="21.49" y2="14.98"/></g></g></svg>