<svg xmlns="http://www.w3.org/2000/svg" viewBox="0 0 50.65 50.65"><defs><style>.cls-1{fill:#2e6690;}.cls-1,.cls-3{fill-rule:evenodd;}.cls-2{fill:#fcd462;}.cls-3{fill:#f2f2f2;}.cls-4{fill:none;stroke:#000;stroke-linecap:round;stroke-linejoin:round;}</style></defs><title>Asset 14</title><g id="Layer_2" data-name="Layer 2"><g id="Layer_1-2" data-name="Layer 1"><path class="cls-1" d="M6.71,37.74A6.21,6.21,0,1,1,.5,44,6.21,6.21,0,0,1,6.71,37.74Z"/><path class="cls-1" d="M44,37.74A6.21,6.21,0,1,1,37.74,44,6.21,6.21,0,0,1,44,37.74Z"/><rect class="cls-2" x="4.64" y="12.91" width="20.69" height="16.55"/><path class="cls-3" d="M15,17.05a2.07,2.07,0,1,1-2.07,2.07A2.07,2.07,0,0,1,15,17.05Z"/><path class="cls-4" d="M6.71,37.74A6.21,6.21,0,1,1,.5,44,6.21,6.21,0,0,1,6.71,37.74Z"/><path class="cls-4" d="M44,37.74A6.21,6.21,0,1,1,37.74,44,6.21,6.21,0,0,1,44,37.74Z"/><polyline class="cls-4" points="43.95 43.95 43.95 17.05 37.74 17.05"/><path class="cls-4" d="M6.71,44H33.6A10.35,10.35,0,0,1,43.94,33.6h0"/><line class="cls-4" x1="4.64" y1="20.98" x2="4.64" y2="21.4"/><polyline class="cls-4" points="4.64 25.33 4.64 29.46 25.33 29.46 25.33 12.91 4.64 12.91 4.64 17.05"/><path class="cls-4" d="M8.78,12.91V6.71a6.21,6.21,0,1,1,12.41,0"/><path class="cls-4" d="M15,17.05a2.07,2.07,0,1,1-2.07,2.07A2.07,2.07,0,0,1,15,17.05Z"/><line class="cls-4" x1="14.98" y1="25.33" x2="14.98" y2="21.19"/></g></g></svg>