<svg xmlns="http://www.w3.org/2000/svg" viewBox="0 0 42.38 50.65"><defs><style>.cls-1{fill:#f2f2f2;}.cls-1,.cls-2,.cls-4{fill-rule:evenodd;}.cls-2{fill:#77e6a6;}.cls-3{fill:#fe5845;}.cls-4{fill:#2e6690;}.cls-5{fill:none;stroke:#000;stroke-linecap:round;stroke-linejoin:round;}</style></defs><title>Asset 5</title><g id="Layer_2" data-name="Layer 2"><g id="Layer_1-2" data-name="Layer 1"><polygon class="cls-1" points="0.5 50.15 0.5 0.5 33.6 0.5 41.88 8.78 41.88 50.15 0.5 50.15"/><path class="cls-2" d="M21.19,8.78a3.1,3.1,0,1,1-3.1,3.1A3.1,3.1,0,0,1,21.19,8.78ZM24.31,15a3.1,3.1,0,0,1,3.08,3.11V29H15V18.09A3.11,3.11,0,0,1,18.09,15h6.22Z"/><rect class="cls-3" x="8.78" y="37.74" width="24.83" height="4.14"/><path class="cls-4" d="M24.29,27.39a3.1,3.1,0,1,0-6.2,0V30.5a3.1,3.1,0,0,0,6.2,0Z"/><path class="cls-5" d="M24.29,27.39a3.1,3.1,0,1,0-6.2,0V30.5a3.1,3.1,0,0,0,6.2,0Z"/><path class="cls-5" d="M18.09,29H15V18.09A3.11,3.11,0,0,1,18.09,15h6.2a3.1,3.1,0,0,1,3.1,3.11V29h-3.1"/><path class="cls-5" d="M21.19,8.78a3.1,3.1,0,1,1-3.1,3.1A3.1,3.1,0,0,1,21.19,8.78Z"/><line class="cls-5" x1="18.09" y1="11.88" x2="14.98" y2="11.88"/><line class="cls-5" x1="24.29" y1="11.88" x2="27.39" y2="11.88"/><line class="cls-5" x1="21.37" y1="50.15" x2="21.01" y2="50.15"/><polyline class="cls-5" points="17.05 50.15 0.5 50.15 0.5 0.5 33.6 0.5 41.88 8.78 41.88 50.15 25.33 50.15"/><rect class="cls-5" x="8.78" y="37.74" width="24.83" height="4.14"/><polyline class="cls-5" points="33.6 0.5 33.6 8.78 41.88 8.78"/></g></g></svg>