<svg xmlns="http://www.w3.org/2000/svg" viewBox="0 0 50.65 50.65"><defs><style>.cls-1{fill:#2e6690;}.cls-1,.cls-2,.cls-4,.cls-5{fill-rule:evenodd;}.cls-2{fill:#fcd462;}.cls-3,.cls-5{fill:#f2f2f2;}.cls-4{fill:#fe5845;}.cls-6{fill:none;stroke:#000;stroke-linecap:round;stroke-linejoin:round;}</style></defs><title>Asset 4</title><g id="Layer_2" data-name="Layer 2"><g id="Layer_1-2" data-name="Layer 1"><path class="cls-1" d="M50.15,8.78A8.26,8.26,0,0,0,41.88.5H8.78A8.26,8.26,0,0,0,.5,8.78v33.1a8.26,8.26,0,0,0,8.28,8.27h33.1a8.26,8.26,0,0,0,8.27-8.27Z"/><path class="cls-2" d="M8.78,8.78h0a4.13,4.13,0,0,0-4.13,4.13v8.28a4.14,4.14,0,0,0,4.14,4.14ZM46,12.91a4.13,4.13,0,0,0-4.13-4.13h0V25.33A4.14,4.14,0,0,0,46,21.19Z"/><rect class="cls-3" x="8.78" y="8.78" width="33.1" height="20.69"/><path class="cls-4" d="M25.33,33.6a6.21,6.21,0,1,1-6.21,6.21A6.21,6.21,0,0,1,25.33,33.6Z"/><path class="cls-5" d="M31.18,41.88h10.7V37.74H31.18Zm-22.4,0H19.47V37.74H8.78Z"/><path class="cls-6" d="M25.08,50.15h.5"/><path class="cls-6" d="M29.46,50.15H41.88a8.26,8.26,0,0,0,8.27-8.27V8.78A8.26,8.26,0,0,0,41.88.5H8.78A8.26,8.26,0,0,0,.5,8.78v33.1a8.26,8.26,0,0,0,8.28,8.27H21.19"/><path class="cls-6" d="M8.78,8.78h0a4.13,4.13,0,0,0-4.13,4.13v8.28a4.14,4.14,0,0,0,4.14,4.14Z"/><path class="cls-6" d="M46,12.91a4.13,4.13,0,0,0-4.13-4.13h0V25.33A4.14,4.14,0,0,0,46,21.19Z"/><rect class="cls-6" x="4.64" y="12.91" width="4.14" height="8.28"/><rect class="cls-6" x="41.88" y="12.91" width="4.14" height="8.28"/><rect class="cls-6" x="8.78" y="8.78" width="33.1" height="20.69"/><line class="cls-6" x1="12.91" y1="17.05" x2="37.74" y2="17.05"/><line class="cls-6" x1="17.05" y1="21.19" x2="33.6" y2="21.19"/><path class="cls-6" d="M25.33,33.6a6.21,6.21,0,1,1-6.21,6.21A6.21,6.21,0,0,1,25.33,33.6Z"/><polyline class="cls-6" points="19.47 37.74 8.78 37.74 8.78 41.88 19.47 41.88"/><polyline class="cls-6" points="31.18 37.74 41.88 37.74 41.88 41.88 31.18 41.88"/></g></g></svg>