<svg xmlns="http://www.w3.org/2000/svg" viewBox="0 0 50.65 50.65"><defs><style>.cls-1{fill:#fe5845;}.cls-2{fill:none;stroke:#000;stroke-linecap:round;stroke-linejoin:round;}</style></defs><title>Asset 23</title><g id="Layer_2" data-name="Layer 2"><g id="Layer_1-2" data-name="Layer 1"><circle class="cls-1" cx="8.78" cy="41.88" r="8.28"/><circle class="cls-1" cx="41.88" cy="41.88" r="8.28" transform="translate(-12.79 19.1) rotate(-22.38)"/><path class="cls-2" d="M2.71,36.25a8.21,8.21,0,0,1,.6-.58"/><path class="cls-2" d="M6.64,33.88a8.37,8.37,0,0,1,2.14-.28,8.27,8.27,0,1,1-8,6.33"/><circle class="cls-2" cx="41.88" cy="41.88" r="8.28" transform="translate(-12.79 19.1) rotate(-22.38)"/><polyline class="cls-2" points="10.84 25.33 14.98 25.33 25.33 41.88 39.11 28.06 16.69 28.06"/><polyline class="cls-2" points="41.88 41.88 37.74 21.19 41.88 21.19"/><polygon class="cls-2" points="8.78 41.88 25.33 41.88 16.69 28.06 8.78 41.88"/><path class="cls-2" d="M2.57,12.91V.5H6.71a4.14,4.14,0,0,1,0,8.28H2.57l8.27,4.13"/><polyline class="cls-2" points="23.26 0.5 14.98 0.5 14.98 6.71 19.12 6.71 14.98 6.71 14.98 12.91 23.26 12.91"/><polyline class="cls-2" points="27.39 12.91 27.39 0.5 35.67 12.91 35.67 0.5"/><line class="cls-2" x1="39.81" y1="0.5" x2="48.08" y2="0.5"/><line class="cls-2" x1="43.95" y1="12.91" x2="43.95" y2="0.5"/></g></g></svg>