<svg xmlns="http://www.w3.org/2000/svg" viewBox="0 0 50.65 48.58"><defs><style>.cls-1{fill:#fe5845;}.cls-1,.cls-2{fill-rule:evenodd;}.cls-2{fill:#f2f2f2;}.cls-3{fill:none;stroke:#000;stroke-linecap:round;stroke-linejoin:round;}</style></defs><title>Asset 3</title><g id="Layer_2" data-name="Layer 2"><g id="Layer_1-2" data-name="Layer 1"><path class="cls-1" d="M41.88,12.91a8.28,8.28,0,1,1-8.28,8.28A8.28,8.28,0,0,1,41.88,12.91Zm-33.1,0A8.28,8.28,0,1,1,.5,21.19,8.28,8.28,0,0,1,8.78,12.91Z"/><path class="cls-2" d="M6.71,35.67a3.11,3.11,0,1,1-3.11,3.1A3.1,3.1,0,0,1,6.71,35.67Zm37.24,0a3.11,3.11,0,1,1-3.11,3.1A3.1,3.1,0,0,1,44,35.67Zm-18.62,0a3.11,3.11,0,1,1-3.11,3.1A3.1,3.1,0,0,1,25.33,35.67ZM.5,48.08a6.21,6.21,0,0,1,12.41,0Zm37.24,0a6.21,6.21,0,0,1,12.41,0Zm-18.62,0a6.21,6.21,0,0,1,12.41,0Z"/><path class="cls-3" d="M2.71,15.56a8.21,8.21,0,0,1,.6-.58"/><path class="cls-3" d="M6.64,13.19a8.37,8.37,0,0,1,2.14-.28,8.27,8.27,0,1,1-8,6.33"/><circle class="cls-3" cx="41.88" cy="21.19" r="8.28" transform="translate(11.6 57.05) rotate(-76.67)"/><polyline class="cls-3" points="10.84 4.64 14.98 4.64 25.33 21.19 39.11 7.37 16.69 7.37"/><polyline class="cls-3" points="41.88 21.19 37.74 0.5 41.88 0.5"/><polygon class="cls-3" points="8.78 21.19 25.33 21.19 16.69 7.37 8.78 21.19"/><path class="cls-3" d="M25.33,35.67a3.11,3.11,0,1,1-3.11,3.1A3.1,3.1,0,0,1,25.33,35.67Z"/><path class="cls-3" d="M44,35.67a3.11,3.11,0,1,1-3.11,3.1A3.1,3.1,0,0,1,44,35.67Z"/><path class="cls-3" d="M6.71,35.67a3.11,3.11,0,1,1-3.11,3.1A3.1,3.1,0,0,1,6.71,35.67Z"/><path class="cls-3" d="M19.12,48.08a6.21,6.21,0,0,1,12.41,0Z"/><path class="cls-3" d="M37.74,48.08a6.21,6.21,0,0,1,12.41,0Z"/><path class="cls-3" d="M.5,48.08a6.21,6.21,0,0,1,12.41,0Z"/><polyline class="cls-3" points="9.36 37.16 25.33 27.39 41.3 37.16"/><line class="cls-3" x1="25.33" y1="35.67" x2="25.33" y2="27.39"/></g></g></svg>