<svg xmlns="http://www.w3.org/2000/svg" viewBox="0 0 50.65 50.65"><defs><style>.cls-1{fill:#f2f2f2;}.cls-1,.cls-2,.cls-3{fill-rule:evenodd;}.cls-2{fill:#2e6690;}.cls-3{fill:#fcd462;}.cls-4{fill:none;stroke:#000;stroke-linecap:round;stroke-linejoin:round;}</style></defs><title>Asset 22</title><g id="Layer_2" data-name="Layer 2"><g id="Layer_1-2" data-name="Layer 1"><polygon class="cls-1" points="38.17 35.13 27.88 29.19 27.39 29.46 27.39 41.35 23.26 41.35 23.26 29.46 22.78 29.19 12.48 35.13 10.41 31.55 20.71 25.6 20.71 25.05 10.41 19.1 12.48 15.52 22.78 21.46 23.26 21.19 23.26 9.3 27.39 9.3 27.39 21.19 27.88 21.46 38.17 15.52 40.24 19.1 29.94 25.05 29.94 25.6 40.24 31.55 38.17 35.13"/><path class="cls-2" d="M25.33,8.78A16.55,16.55,0,1,1,8.78,25.33,16.56,16.56,0,0,1,25.33,8.78Zm0-8.28A24.83,24.83,0,1,1,.5,25.33,24.83,24.83,0,0,1,25.33.5Z"/><path class="cls-3" d="M25.33,21.19a4.14,4.14,0,1,1-4.14,4.14A4.13,4.13,0,0,1,25.33,21.19Z"/><circle class="cls-4" cx="25.33" cy="25.33" r="16.55" transform="translate(-5.11 44.21) rotate(-76.81)"/><path class="cls-4" d="M46,25.33A20.69,20.69,0,0,1,25.33,46"/><path class="cls-4" d="M25.33,21.19a4.14,4.14,0,1,1-4.14,4.14A4.13,4.13,0,0,1,25.33,21.19Z"/><path class="cls-4" d="M4.64,25.33A20.7,20.7,0,0,1,25.33,4.64"/><line class="cls-4" x1="23.26" y1="21.19" x2="23.26" y2="9.3"/><line class="cls-4" x1="27.39" y1="9.3" x2="27.39" y2="21.19"/><line class="cls-4" x1="27.39" y1="29.46" x2="27.39" y2="41.36"/><line class="cls-4" x1="23.26" y1="41.36" x2="23.26" y2="29.46"/><line class="cls-4" x1="27.87" y1="21.47" x2="38.17" y2="15.52"/><line class="cls-4" x1="40.24" y1="19.1" x2="29.94" y2="25.05"/><line class="cls-4" x1="22.78" y1="29.19" x2="12.48" y2="35.13"/><line class="cls-4" x1="10.41" y1="31.55" x2="20.71" y2="25.6"/><line class="cls-4" x1="29.94" y1="25.6" x2="40.24" y2="31.55"/><line class="cls-4" x1="38.17" y1="35.13" x2="27.87" y2="29.19"/><line class="cls-4" x1="20.71" y1="25.05" x2="10.41" y2="19.1"/><line class="cls-4" x1="12.48" y1="15.52" x2="22.78" y2="21.47"/><path class="cls-4" d="M7.93,7.62c.27-.27.56-.53.85-.79"/><path class="cls-4" d="M12.32,4.18a24.86,24.86,0,1,1-7.15,6.66"/></g></g></svg>