<svg xmlns="http://www.w3.org/2000/svg" viewBox="0 0 50.65 34.1"><defs><style>.cls-1{fill:#77e6a6;}.cls-1,.cls-3{fill-rule:evenodd;}.cls-2{fill:#f2f2f2;}.cls-3{fill:#2e6690;}.cls-4{fill:none;stroke:#000;stroke-linecap:round;stroke-linejoin:round;}</style></defs><title>Asset 9</title><g id="Layer_2" data-name="Layer 2"><g id="Layer_1-2" data-name="Layer 1"><path class="cls-1" d="M1.91,25.33A14.58,14.58,0,0,1,.5,19.12C.5,8.84,11.62.5,25.33.5S50.15,8.84,50.15,19.12a14.58,14.58,0,0,1-1.41,6.21Z"/><rect class="cls-2" x="4.64" y="25.33" width="41.38" height="4.14"/><path class="cls-3" d="M19,1.12a33.08,33.08,0,0,1,12.75,0L25.33,17.05ZM36,2.32A24,24,0,0,1,46.36,9.23l-12.76,10Zm-19,17L4.29,9.23A24,24,0,0,1,14.61,2.32ZM44,29.46H39.81v2.13a2,2,0,0,0,2,2h0a2.09,2.09,0,0,0,1.5-.62,2.13,2.13,0,0,0,.63-1.5Zm-33.11,0H6.71v2.13a2,2,0,0,0,2,2h0a2.09,2.09,0,0,0,1.5-.62,2.12,2.12,0,0,0,.62-1.5Z"/><path class="cls-4" d="M1.91,25.33A14.58,14.58,0,0,1,.5,19.12C.5,8.84,11.62.5,25.33.5S50.15,8.84,50.15,19.12a14.58,14.58,0,0,1-1.41,6.21Z"/><line class="cls-4" x1="25.16" y1="29.46" x2="25.5" y2="29.46"/><polyline class="cls-4" points="29.46 29.46 46.01 29.46 46.01 25.33 4.64 25.33 4.64 29.46 21.19 29.46"/><path class="cls-4" d="M10.84,29.46H6.71v2.13a2,2,0,0,0,2,2h0a2.09,2.09,0,0,0,1.5-.62,2.12,2.12,0,0,0,.62-1.5Z"/><path class="cls-4" d="M44,29.46H39.81v2.13a2,2,0,0,0,2,2h0a2.09,2.09,0,0,0,1.5-.62,2.13,2.13,0,0,0,.63-1.5Z"/><path class="cls-4" d="M19,1.12a33.08,33.08,0,0,1,12.75,0L25.33,17.05ZM36,2.32A24,24,0,0,1,46.36,9.23l-12.76,10Zm-19,17L4.29,9.23A24,24,0,0,1,14.61,2.32Z"/></g></g></svg>