<svg xmlns="http://www.w3.org/2000/svg" viewBox="0 0 50.65 50.65"><defs><style>.cls-1{fill:#2e6690;fill-rule:evenodd;}.cls-2{fill:#fcd462;}.cls-3{fill:none;stroke:#000;stroke-linecap:round;stroke-linejoin:round;}</style></defs><title>Asset 12</title><g id="Layer_2" data-name="Layer 2"><g id="Layer_1-2" data-name="Layer 1"><path class="cls-1" d="M6.71,37.74A6.21,6.21,0,1,1,.5,44,6.21,6.21,0,0,1,6.71,37.74Z"/><path class="cls-1" d="M44,37.74A6.21,6.21,0,1,1,37.74,44,6.21,6.21,0,0,1,44,37.74Z"/><circle class="cls-2" cx="14.98" cy="14.98" r="14.48" transform="translate(-4.62 6.95) rotate(-22.71)"/><path class="cls-3" d="M6.71,37.74A6.21,6.21,0,1,1,.5,44,6.21,6.21,0,0,1,6.71,37.74Z"/><path class="cls-3" d="M44,37.74A6.21,6.21,0,1,1,37.74,44,6.21,6.21,0,0,1,44,37.74Z"/><polyline class="cls-3" points="43.95 43.95 43.95 17.05 37.74 17.05"/><path class="cls-3" d="M6.71,44H33.6A10.35,10.35,0,0,1,43.94,33.6h0"/><line class="cls-3" x1="14.98" y1="8.78" x2="14.98" y2="21.19"/><path class="cls-3" d="M4.64,4.85l.21-.21"/><path class="cls-3" d="M7.9,2.35a14.49,14.49,0,1,1-5.52,5.5"/><path class="cls-3" d="M21.19,10.84H10.84a2.08,2.08,0,0,0-1.46.61,2,2,0,0,0-.6,1.46,2.07,2.07,0,0,0,.6,1.47,2.11,2.11,0,0,0,1.46.6h8.28a2.07,2.07,0,0,1,0,4.14H8.78"/></g></g></svg>