<svg xmlns="http://www.w3.org/2000/svg" viewBox="0 0 50.65 34.1"><defs><style>.cls-1{fill:#2e6690;}.cls-1,.cls-4{fill-rule:evenodd;}.cls-2{fill:#fe5845;}.cls-3,.cls-4{fill:#f2f2f2;}.cls-5{fill:none;stroke:#000;stroke-linecap:round;stroke-linejoin:round;}</style></defs><title>Asset 17</title><g id="Layer_2" data-name="Layer 2"><g id="Layer_1-2" data-name="Layer 1"><path class="cls-1" d="M4.64,4.64V.5A4.14,4.14,0,0,0,.5,4.64s.44,27,1.21,27.75A4.17,4.17,0,0,0,4.64,33.6H46a4.17,4.17,0,0,0,2.93-1.21c.78-.78,1.21-21.39,1.21-27.75A4.14,4.14,0,0,0,46,.5V4.64Z"/><rect class="cls-2" x="4.64" y="4.64" width="41.38" height="28.96"/><rect class="cls-3" x="37.74" y="4.64" width="8.28" height="12.41"/><path class="cls-4" d="M5.06,33.6A4.56,4.56,0,0,1,.5,29h0a3.71,3.71,0,0,1,3.71-3.7h.42V17.05h8.27V33.6Z"/><rect class="cls-3" x="4.64" y="4.64" width="16.55" height="8.28"/><polygon class="cls-4" points="33.6 8.78 33.6 21.19 17.05 21.19 17.05 17.05 25.33 17.05 25.33 8.78 33.6 8.78"/><path class="cls-4" d="M46,33.6a4.14,4.14,0,0,0,4.14-4.14h0A4.13,4.13,0,0,0,46,25.33h0V21.19H41.88V33.6Z"/><path class="cls-5" d="M46,33.6a4.14,4.14,0,0,0,4.14-4.14h0A4.13,4.13,0,0,0,46,25.33h0V21.19H41.88V33.6Z"/><path class="cls-4" d="M29.46,33.6h8.28V25.33H29.46Zm-12.41,0h8.28V25.33H17.05Z"/><path class="cls-5" d="M4.64.5h0A4.14,4.14,0,0,0,.5,4.64V29.46A4.13,4.13,0,0,0,4.64,33.6H46a4.17,4.17,0,0,0,2.93-1.21,4.13,4.13,0,0,0,1.21-2.93V4.64A4.14,4.14,0,0,0,46,.5V25.33h0a4.13,4.13,0,0,1,4.13,4.13h0"/><path class="cls-5" d="M4.64.5V25.33h0A4.13,4.13,0,0,0,.5,29.46h0"/><line class="cls-5" x1="4.64" y1="4.64" x2="25.33" y2="4.64"/><line class="cls-5" x1="29.25" y1="4.64" x2="29.67" y2="4.64"/><line class="cls-5" x1="33.6" y1="4.64" x2="46.01" y2="4.64"/><polyline class="cls-5" points="37.74 4.64 37.74 17.05 46.01 17.05"/><polyline class="cls-5" points="4.64 17.05 12.91 17.05 12.91 33.6"/><polyline class="cls-5" points="4.64 12.91 21.19 12.91 21.19 4.64"/><polyline class="cls-5" points="17.05 33.6 17.05 25.33 25.33 25.33 25.33 33.6"/><polygon class="cls-5" points="33.6 8.78 33.6 21.19 17.05 21.19 17.05 17.05 25.33 17.05 25.33 8.78 33.6 8.78"/><polyline class="cls-5" points="46.01 21.19 41.88 21.19 41.88 33.6"/><rect class="cls-5" x="29.46" y="25.33" width="8.28" height="8.28"/></g></g></svg>