<svg xmlns="http://www.w3.org/2000/svg" viewBox="0 0 50.65 25.83"><defs><style>.cls-1{fill:#fcd462;}.cls-2{fill:#2e6690;}.cls-2,.cls-3{fill-rule:evenodd;}.cls-3{fill:#f2f2f2;}.cls-4{fill:none;stroke:#000;stroke-linecap:round;stroke-linejoin:round;}</style></defs><title>Asset 16</title><g id="Layer_2" data-name="Layer 2"><g id="Layer_1-2" data-name="Layer 1"><rect class="cls-1" x="0.5" y="0.5" width="49.65" height="20.69" rx="2.07"/><path class="cls-2" d="M41.88,17.05a4.14,4.14,0,1,1-4.14,4.14A4.13,4.13,0,0,1,41.88,17.05Zm-33.1,0a4.14,4.14,0,1,1-4.14,4.14A4.13,4.13,0,0,1,8.78,17.05Z"/><path class="cls-3" d="M4.64,12.91H41.88V4.64H4.64Zm41.37,0h4.14V4.64H46Z"/><path class="cls-4" d="M8.78,17.05a4.14,4.14,0,1,1-4.14,4.14A4.13,4.13,0,0,1,8.78,17.05Z"/><path class="cls-4" d="M41.88,17.05a4.14,4.14,0,1,1-4.14,4.14A4.13,4.13,0,0,1,41.88,17.05Z"/><path class="cls-4" d="M4.64,21.19H2.57A2.07,2.07,0,0,1,.5,19.12V2.57A2.07,2.07,0,0,1,2.57.5H48.08a2.07,2.07,0,0,1,2.07,2.07V19.12a2.07,2.07,0,0,1-2.07,2.07H46"/><line class="cls-4" x1="37.74" y1="21.19" x2="29.46" y2="21.19"/><line class="cls-4" x1="25.6" y1="21.19" x2="25.05" y2="21.19"/><line class="cls-4" x1="21.19" y1="21.19" x2="12.91" y2="21.19"/><polyline class="cls-4" points="50.15 12.91 46.01 12.91 46.01 4.64 50.15 4.64"/><rect class="cls-4" x="4.64" y="4.64" width="37.24" height="8.28"/><rect class="cls-4" x="17.05" y="4.64" width="12.41" height="8.28"/></g></g></svg>