<svg xmlns="http://www.w3.org/2000/svg" viewBox="0 0 50.65 25.83"><defs><style>.cls-1{fill:#f2f2f2;}.cls-1,.cls-2,.cls-3{fill-rule:evenodd;}.cls-2{fill:#2e6690;}.cls-3{fill:#fcd462;}.cls-4{fill:none;stroke:#000;stroke-linecap:round;stroke-linejoin:round;}</style></defs><title>Asset 6</title><g id="Layer_2" data-name="Layer 2"><g id="Layer_1-2" data-name="Layer 1"><path class="cls-1" d="M37.74,8.78V19.12H29.46V17.05Zm-24.83,0V19.12h8.28V17.05Z"/><path class="cls-2" d="M50.15,17.05a4.14,4.14,0,1,0-8.27,0v4.14a4.14,4.14,0,1,0,8.27,0Zm-41.37,0a4.14,4.14,0,1,0-8.28,0v4.14a4.14,4.14,0,0,0,8.28,0Z"/><path class="cls-3" d="M29.46,12.91A4.13,4.13,0,0,0,33.6,8.78,8.28,8.28,0,0,1,41.88.5h6.2a2.07,2.07,0,1,1,0,4.14h-6.2a4.14,4.14,0,0,0-4.14,4.14,8.28,8.28,0,0,1-8.28,8.27H25.33V12.91Zm-8.27,0a4.13,4.13,0,0,1-4.14-4.13A8.26,8.26,0,0,0,8.78.5H2.57a2.07,2.07,0,0,0,0,4.14H8.78a4.13,4.13,0,0,1,4.13,4.14,8.28,8.28,0,0,0,8.28,8.27h4.14V12.91Z"/><path class="cls-4" d="M8.78,17.05a4.14,4.14,0,1,0-8.28,0v4.14a4.14,4.14,0,0,0,8.28,0Z"/><path class="cls-4" d="M50.15,17.05a4.14,4.14,0,1,0-8.27,0v4.14a4.14,4.14,0,1,0,8.27,0Z"/><line class="cls-4" x1="0.5" y1="17.05" x2="8.78" y2="17.05"/><line class="cls-4" x1="41.88" y1="17.05" x2="50.15" y2="17.05"/><line class="cls-4" x1="8.78" y1="21.19" x2="0.5" y2="21.19"/><line class="cls-4" x1="50.15" y1="21.19" x2="41.88" y2="21.19"/><path class="cls-4" d="M8.78,4.64a4.13,4.13,0,0,1,4.13,4.14,8.28,8.28,0,0,0,8.28,8.27h4.14V12.91H21.19a4.13,4.13,0,0,1-4.14-4.13A8.26,8.26,0,0,0,8.78.5H2.57a2.07,2.07,0,0,0,0,4.14H4.64"/><path class="cls-4" d="M41.88,4.64a4.14,4.14,0,0,0-4.14,4.14,8.28,8.28,0,0,1-8.28,8.27H25.33V12.91h4.13A4.13,4.13,0,0,0,33.6,8.78,8.28,8.28,0,0,1,41.88.5h6.2a2.07,2.07,0,1,1,0,4.14H46"/><polyline class="cls-4" points="12.91 8.78 12.91 19.12 21.19 19.12 21.19 17.05"/><polyline class="cls-4" points="37.74 8.78 37.74 19.12 29.46 19.12 29.46 17.05"/></g></g></svg>