<svg xmlns="http://www.w3.org/2000/svg" viewBox="0 0 42.38 50.65"><defs><style>.cls-1{fill:#f2f2f2;}.cls-1,.cls-2{fill-rule:evenodd;}.cls-2{fill:#77e6a6;}.cls-3{fill:#fcd462;}.cls-4{fill:none;stroke:#000;stroke-linecap:round;stroke-linejoin:round;}</style></defs><title>Asset 21</title><g id="Layer_2" data-name="Layer 2"><g id="Layer_1-2" data-name="Layer 1"><polygon class="cls-1" points="0.5 50.15 0.5 0.5 33.6 0.5 41.88 8.78 41.88 50.15 0.5 50.15"/><path class="cls-2" d="M33.6,25.33a4.14,4.14,0,1,1-4.14,4.13A4.13,4.13,0,0,1,33.6,25.33Zm-24.82,0a4.14,4.14,0,1,1-4.14,4.13A4.13,4.13,0,0,1,8.78,25.33Z"/><rect class="cls-3" x="8.78" y="37.74" width="24.83" height="4.14"/><path class="cls-4" d="M8.78,25.33a4.14,4.14,0,1,1-4.14,4.13A4.13,4.13,0,0,1,8.78,25.33Z"/><path class="cls-4" d="M33.6,25.33a4.14,4.14,0,1,1-4.14,4.13A4.13,4.13,0,0,1,33.6,25.33Z"/><polyline class="cls-4" points="33.6 29.46 33.6 12.91 29.46 12.91"/><rect class="cls-4" x="8.78" y="37.74" width="24.83" height="4.14"/><path class="cls-4" d="M8.78,29.46H26.71a6.88,6.88,0,0,1,6.89-6.89h0"/><line class="cls-4" x1="21.37" y1="50.15" x2="21.01" y2="50.15"/><polyline class="cls-4" points="17.05 50.15 0.5 50.15 0.5 0.5 33.6 0.5 41.88 8.78 41.88 50.15 25.33 50.15"/><polyline class="cls-4" points="33.6 0.5 33.6 8.78 41.88 8.78"/></g></g></svg>