<svg xmlns="http://www.w3.org/2000/svg" viewBox="0 0 46.51 48.58"><defs><style>.cls-1{fill:#f2f2f2;}.cls-1,.cls-2{fill-rule:evenodd;}.cls-2{fill:#2e6690;}.cls-3{fill:#fcd462;}.cls-4{fill:none;stroke:#000;stroke-linecap:round;stroke-linejoin:round;}</style></defs><title>Asset 8</title><g id="Layer_2" data-name="Layer 2"><g id="Layer_1-2" data-name="Layer 1"><path class="cls-1" d="M8.78,15a4.14,4.14,0,1,1-4.14,4.14A4.14,4.14,0,0,1,8.78,15Zm4.16,8.28a4.13,4.13,0,0,1,4.11,4.13V41.88H.5V27.39a4.13,4.13,0,0,1,4.14-4.13h8.3Z"/><path class="cls-2" d="M12.91,39.81a4.14,4.14,0,1,0-8.27,0V44a4.14,4.14,0,0,0,8.27,0Z"/><rect class="cls-3" x="25.33" y="12.91" width="20.69" height="16.55"/><path class="cls-1" d="M35.67,17.05a2.07,2.07,0,1,0,2.07,2.07A2.07,2.07,0,0,0,35.67,17.05Z"/><path class="cls-4" d="M12.91,39.81a4.14,4.14,0,1,0-8.27,0V44a4.14,4.14,0,0,0,8.27,0Z"/><polyline class="cls-4" points="4.64 41.88 0.5 41.88 0.5 39.81"/><path class="cls-4" d="M.5,35.79v-.41"/><path class="cls-4" d="M.5,31.53V27.39a4.13,4.13,0,0,1,4.14-4.13h8.27a4.13,4.13,0,0,1,4.14,4.13V41.88H12.91"/><rect class="cls-4" x="25.33" y="12.91" width="20.69" height="16.55"/><path class="cls-4" d="M8.78,15a4.14,4.14,0,1,1-4.14,4.14A4.14,4.14,0,0,1,8.78,15Z"/><line class="cls-4" x1="4.64" y1="19.12" x2="0.5" y2="19.12"/><line class="cls-4" x1="12.91" y1="19.12" x2="17.05" y2="19.12"/><path class="cls-4" d="M41.88,12.91V6.71a6.21,6.21,0,0,0-12.42,0"/><path class="cls-4" d="M35.67,17.05a2.07,2.07,0,1,0,2.07,2.07A2.07,2.07,0,0,0,35.67,17.05Z"/><line class="cls-4" x1="35.67" y1="25.33" x2="35.67" y2="21.19"/></g></g></svg>