<svg xmlns="http://www.w3.org/2000/svg" viewBox="0 0 50.65 50.65"><defs><style>.cls-1{fill:#fcd462;}.cls-2{fill:#77e6a6;}.cls-2,.cls-3{fill-rule:evenodd;}.cls-3{fill:#2e6690;}.cls-4{fill:none;stroke:#000;stroke-linecap:round;stroke-linejoin:round;}</style></defs><title>Asset 18</title><g id="Layer_2" data-name="Layer 2"><g id="Layer_1-2" data-name="Layer 1"><circle class="cls-1" cx="35.67" cy="14.98" r="14.48" transform="translate(12.94 46.29) rotate(-76.8)"/><path class="cls-2" d="M8.78,17.05a4.14,4.14,0,1,1-4.14,4.14A4.13,4.13,0,0,1,8.78,17.05Zm4.16,8.28a4.13,4.13,0,0,1,4.11,4.13V44H.5V29.46a4.13,4.13,0,0,1,4.14-4.13h8.3Z"/><path class="cls-3" d="M12.91,41.88a4.14,4.14,0,1,0-8.27,0V46a4.14,4.14,0,1,0,8.27,0Z"/><path class="cls-4" d="M12.91,41.88a4.14,4.14,0,1,0-8.27,0V46a4.14,4.14,0,1,0,8.27,0Z"/><polyline class="cls-4" points="4.64 43.95 0.5 43.95 0.5 41.88"/><path class="cls-4" d="M.5,37.86v-.41"/><path class="cls-4" d="M.5,33.6V29.46a4.13,4.13,0,0,1,4.14-4.13h8.27a4.13,4.13,0,0,1,4.14,4.13V44H12.91"/><circle class="cls-4" cx="35.67" cy="14.98" r="14.48" transform="translate(12.94 46.29) rotate(-76.8)"/><path class="cls-4" d="M41.88,10.84H31.53a2.08,2.08,0,0,0-2.07,2.07A2.07,2.07,0,0,0,31.53,15h8.28a2.07,2.07,0,0,1,0,4.14H29.46"/><line class="cls-4" x1="35.67" y1="8.78" x2="35.67" y2="21.19"/><path class="cls-4" d="M8.78,17.05a4.14,4.14,0,1,1-4.14,4.14A4.13,4.13,0,0,1,8.78,17.05Z"/><line class="cls-4" x1="4.64" y1="21.19" x2="0.5" y2="21.19"/><line class="cls-4" x1="17.05" y1="21.19" x2="12.91" y2="21.19"/></g></g></svg>