<svg xmlns="http://www.w3.org/2000/svg" viewBox="0 0 50.65 34.1"><defs><style>.cls-1{fill:#77e6a6;fill-rule:evenodd;}.cls-2{fill:#fcd462;}.cls-3{fill:#f2f2f2;}.cls-4{fill:none;stroke:#000;stroke-linecap:round;stroke-linejoin:round;}</style></defs><title>Asset 7</title><g id="Layer_2" data-name="Layer 2"><g id="Layer_1-2" data-name="Layer 1"><path class="cls-1" d="M50.15,4.64a4.13,4.13,0,0,0-1.21-2.93A4.17,4.17,0,0,0,46,.5H4.64A4.13,4.13,0,0,0,.5,4.64V29.46a4.17,4.17,0,0,0,1.21,2.93A4.13,4.13,0,0,0,4.64,33.6H46a4.13,4.13,0,0,0,4.14-4.14Z"/><rect class="cls-2" x="4.64" y="4.64" width="16.65" height="12.41"/><rect class="cls-3" x="4.64" y="25.33" width="41.38" height="4.14"/><rect class="cls-4" x="4.64" y="4.64" width="16.65" height="12.41"/><rect class="cls-4" x="4.64" y="25.33" width="41.38" height="4.14"/><line class="cls-4" x1="10.84" y1="12.91" x2="4.99" y2="12.91"/><line class="cls-4" x1="20.83" y1="12.91" x2="14.98" y2="12.91"/><rect class="cls-4" x="10.84" y="4.64" width="4.14" height="12.41"/><line class="cls-4" x1="5.45" y1="8.78" x2="10.84" y2="8.78"/><line class="cls-4" x1="15.44" y1="8.78" x2="20.83" y2="8.78"/><line class="cls-4" x1="33.6" y1="12.91" x2="33.6" y2="8.78"/><line class="cls-4" x1="37.74" y1="12.91" x2="37.74" y2="8.78"/><line class="cls-4" x1="41.88" y1="12.91" x2="41.88" y2="8.78"/><line class="cls-4" x1="46.01" y1="12.91" x2="46.01" y2="8.78"/><line class="cls-4" x1="29.46" y1="8.78" x2="29.46" y2="12.91"/><path class="cls-4" d="M25.12,33.6h.42"/><path class="cls-4" d="M29.46,33.6H46a4.13,4.13,0,0,0,4.14-4.14V4.64a4.13,4.13,0,0,0-1.21-2.93A4.17,4.17,0,0,0,46,.5H4.64A4.13,4.13,0,0,0,.5,4.64V29.46a4.17,4.17,0,0,0,1.21,2.93A4.13,4.13,0,0,0,4.64,33.6H21.19"/></g></g></svg>