<svg xmlns="http://www.w3.org/2000/svg" viewBox="0 0 50.65 50.65"><defs><style>.cls-1{fill:#f2f2f2;}.cls-1,.cls-2,.cls-3{fill-rule:evenodd;}.cls-2{fill:#2e6690;}.cls-3{fill:#fe5845;}.cls-4{fill:none;stroke:#000;stroke-linecap:round;stroke-linejoin:round;}</style></defs><title>Asset 15</title><g id="Layer_2" data-name="Layer 2"><g id="Layer_1-2" data-name="Layer 1"><polygon class="cls-1" points="43.95 35.67 6.71 35.67 6.71 31.53 12.91 21.19 37.74 21.19 43.95 31.53 43.95 35.67"/><path class="cls-2" d="M46,44H37.74v4.13a2.07,2.07,0,0,0,2.07,2.07H44A2.07,2.07,0,0,0,46,48.08Zm-33.1,0H4.64v4.13a2.07,2.07,0,0,0,2.07,2.07h4.13a2.07,2.07,0,0,0,2.07-2.07Z"/><path class="cls-3" d="M8.78,35.67a4.14,4.14,0,0,0-4.14-4.14H2.57a2.07,2.07,0,0,0,0,4.14ZM50.15,33.6a2.07,2.07,0,0,0-2.07-2.07H46a4.13,4.13,0,0,0-4.13,4.14h6.2A2.07,2.07,0,0,0,50.15,33.6Zm-2.07,6.21A4.13,4.13,0,0,0,44,35.67H6.71a4.17,4.17,0,0,0-2.93,1.21,4.13,4.13,0,0,0-1.21,2.93V44H48.08Z"/><line class="cls-4" x1="25.03" y1="43.95" x2="25.62" y2="43.95"/><path class="cls-4" d="M29.46,44H48.08V39.81A4.13,4.13,0,0,0,44,35.67H6.71a4.17,4.17,0,0,0-2.93,1.21,4.13,4.13,0,0,0-1.21,2.93V44H21.19"/><path class="cls-4" d="M12.91,44H4.64v4.13a2.07,2.07,0,0,0,2.07,2.07h4.13a2.07,2.07,0,0,0,2.07-2.07Z"/><path class="cls-4" d="M46,44H37.74v4.13a2.07,2.07,0,0,0,2.07,2.07H44A2.07,2.07,0,0,0,46,48.08Z"/><path class="cls-4" d="M8.78,35.67a4.14,4.14,0,0,0-4.14-4.14H2.57a2.07,2.07,0,0,0,0,4.14Z"/><path class="cls-4" d="M50.15,33.6a2.07,2.07,0,0,0-2.07-2.07H46a4.13,4.13,0,0,0-4.13,4.14h6.2A2.07,2.07,0,0,0,50.15,33.6Z"/><polyline class="cls-4" points="6.71 31.53 12.91 21.19 37.74 21.19 43.95 31.53"/><line class="cls-4" x1="21.19" y1="39.81" x2="29.46" y2="39.81"/><line class="cls-4" x1="2.57" y1="39.81" x2="4.64" y2="39.81"/><line class="cls-4" x1="46.01" y1="39.81" x2="48.08" y2="39.81"/><path class="cls-4" d="M2.57,12.91V.5H6.71a4.14,4.14,0,0,1,0,8.28H2.57l8.27,4.13"/><polyline class="cls-4" points="23.26 0.5 14.98 0.5 14.98 6.71 19.12 6.71 14.98 6.71 14.98 12.91 23.26 12.91"/><polyline class="cls-4" points="27.39 12.91 27.39 0.5 35.67 12.91 35.67 0.5"/><line class="cls-4" x1="39.81" y1="0.5" x2="48.08" y2="0.5"/><line class="cls-4" x1="43.95" y1="12.91" x2="43.95" y2="0.5"/></g></g></svg>