<svg xmlns="http://www.w3.org/2000/svg" viewBox="0 0 42.38 50.65"><defs><style>.cls-1{fill:#f2f2f2;}.cls-1,.cls-2,.cls-3{fill-rule:evenodd;}.cls-2{fill:#2e6690;}.cls-3{fill:#77e6a6;}.cls-4{fill:#fe5845;}.cls-5{fill:none;stroke:#000;stroke-linecap:round;stroke-linejoin:round;}</style></defs><title>Asset 1</title><g id="Layer_2" data-name="Layer 2"><g id="Layer_1-2" data-name="Layer 1"><polygon class="cls-1" points="0.5 50.15 0.5 0.5 33.6 0.5 41.88 8.78 41.88 50.15 0.5 50.15"/><path class="cls-2" d="M35,29.46H29.46v2.76a1.38,1.38,0,0,0,1.38,1.38H33.6A1.38,1.38,0,0,0,35,32.22Zm-22.07,0H7.4v2.76A1.38,1.38,0,0,0,8.78,33.6h2.75a1.38,1.38,0,0,0,1.38-1.38Z"/><path class="cls-3" d="M12.91,24a4.13,4.13,0,0,0-4.13-4.14H6.71a2.07,2.07,0,0,0,0,4.14Zm24.83-2.07a2.07,2.07,0,0,0-2.07-2.07H33.6A4.14,4.14,0,0,0,29.46,24h6.21A2.07,2.07,0,0,0,37.74,21.88Zm-1.38,4.83A2.75,2.75,0,0,0,33.6,24H8.78A2.73,2.73,0,0,0,6,26.71v2.75H36.36Z"/><rect class="cls-4" x="8.78" y="37.74" width="24.83" height="4.14"/><path class="cls-5" d="M36.36,26.71A2.75,2.75,0,0,0,33.6,24H8.78A2.73,2.73,0,0,0,6,26.71v2.75H36.36Z"/><path class="cls-5" d="M12.91,29.46H7.4v2.76A1.38,1.38,0,0,0,8.78,33.6h2.75a1.38,1.38,0,0,0,1.38-1.38Z"/><path class="cls-5" d="M35,29.46H29.46v2.76a1.38,1.38,0,0,0,1.38,1.38H33.6A1.38,1.38,0,0,0,35,32.22Z"/><path class="cls-5" d="M12.91,24a4.13,4.13,0,0,0-4.13-4.14H6.71a2.07,2.07,0,0,0,0,4.14Z"/><path class="cls-5" d="M37.74,21.88a2.07,2.07,0,0,0-2.07-2.07H33.6A4.14,4.14,0,0,0,29.46,24h6.21A2.07,2.07,0,0,0,37.74,21.88Z"/><polyline class="cls-5" points="8.78 19.81 12.91 12.91 29.46 12.91 33.6 19.81"/><line class="cls-5" x1="21.37" y1="50.15" x2="21.01" y2="50.15"/><polyline class="cls-5" points="17.05 50.15 0.5 50.15 0.5 0.5 33.6 0.5 41.88 8.78 41.88 50.15 25.33 50.15"/><polyline class="cls-5" points="33.6 0.5 33.6 8.78 41.88 8.78"/><rect class="cls-5" x="8.78" y="37.74" width="24.83" height="4.14"/></g></g></svg>