<svg xmlns="http://www.w3.org/2000/svg" xmlns:xlink="http://www.w3.org/1999/xlink" viewBox="0 0 50.65 50.65"><defs><style>.cls-1,.cls-6{fill:none;}.cls-1{clip-rule:evenodd;}.cls-2{fill:#2e6690;}.cls-2,.cls-4,.cls-5{fill-rule:evenodd;}.cls-3{clip-path:url(#clip-path);}.cls-4{fill:#fcd462;}.cls-5{fill:#f2f2f2;}.cls-6{stroke:#000;stroke-linecap:round;stroke-linejoin:round;}</style><clipPath id="clip-path"><path class="cls-1" d="M39.66,17.05H11a16.56,16.56,0,0,1,28.67,0ZM9.3,29.46h3.61a8.28,8.28,0,0,1,8.28,8.28v3.62A16.62,16.62,0,0,1,9.3,29.46Zm32.05,0a16.57,16.57,0,0,1-11.89,11.9V37.74a8.28,8.28,0,0,1,8.28-8.28Zm-16-29A24.83,24.83,0,1,1,.5,25.33,24.83,24.83,0,0,1,25.33.5Z"/></clipPath></defs><title>Asset 24</title><g id="Layer_2" data-name="Layer 2"><g id="Layer_1-2" data-name="Layer 1"><path class="cls-2" d="M39.66,17.05H11a16.56,16.56,0,0,1,28.67,0ZM9.3,29.46h3.61a8.28,8.28,0,0,1,8.28,8.28v3.62A16.62,16.62,0,0,1,9.3,29.46Zm32.05,0a16.57,16.57,0,0,1-11.89,11.9V37.74a8.28,8.28,0,0,1,8.28-8.28Zm-16-29A24.83,24.83,0,1,1,.5,25.33,24.83,24.83,0,0,1,25.33.5Z"/><g class="cls-3"><path class="cls-4" d="M34.57,17.05A12.39,12.39,0,0,1,37,29.46L29.46,37a12.4,12.4,0,0,1-8.27,0l-7.57-7.57a12.39,12.39,0,0,1,2.46-12.41Z"/></g><path class="cls-5" d="M25.33,21.19a4.14,4.14,0,1,1-4.14,4.14A4.13,4.13,0,0,1,25.33,21.19Z"/><path class="cls-6" d="M39.66,17.05H11a16.56,16.56,0,0,1,28.67,0ZM9.3,29.46h3.61a8.28,8.28,0,0,1,8.28,8.28v3.62A16.62,16.62,0,0,1,9.3,29.46Zm32.05,0a16.57,16.57,0,0,1-11.89,11.9V37.74a8.28,8.28,0,0,1,8.28-8.28Z"/><path class="cls-6" d="M7.93,7.62c.27-.27.56-.53.85-.79"/><path class="cls-6" d="M12.32,4.18a24.86,24.86,0,1,1-7.15,6.66"/><path class="cls-6" d="M25.33,21.19a4.14,4.14,0,1,1-4.14,4.14A4.13,4.13,0,0,1,25.33,21.19Z"/><path class="cls-6" d="M34.57,17.05A12.39,12.39,0,0,1,37,29.46"/><path class="cls-6" d="M29.46,37a12.4,12.4,0,0,1-8.27,0"/><path class="cls-6" d="M13.62,29.46a12.39,12.39,0,0,1,2.46-12.41"/></g></g></svg>